HIERARCHY
ROOT hip
{
	OFFSET 0.000000 0.000000 0.000000 
	CHANNELS 6 Xposition Yposition Zposition Xrotation Zrotation Yrotation
	JOINT abdomen
	{
		OFFSET 0.000000 3.402643 0.000000 
		CHANNELS 3 Xrotation Zrotation Yrotation
		JOINT chest
		{
			OFFSET 0.000000 8.438565 -0.680529 
			CHANNELS 3 Xrotation Zrotation Yrotation
			JOINT neck
			{
				OFFSET 0.000000 10.207942 -0.272212 
				CHANNELS 3 Xrotation Zrotation Yrotation
				JOINT head
				{
					OFFSET 0.000000 3.130431 0.000000 
					CHANNELS 3 Xrotation Zrotation Yrotation
					End Site
					{
						OFFSET 0.000000 3.130435 0.000000 
					}
				}
			}
			JOINT lCollar
			{
				OFFSET 3.470700 6.669187 -0.816635 
				CHANNELS 3 Yrotation Zrotation Xrotation
				JOINT lShldr
				{
					OFFSET 3.198488 0.000000 0.000000 
					CHANNELS 3 Zrotation Yrotation Xrotation
					JOINT lForeArm
					{
						OFFSET 10.139888 0.000000 0.000000 
						CHANNELS 3 Yrotation Zrotation Xrotation
						JOINT lHand
						{
							OFFSET 8.370511 0.000000 0.000000 
							CHANNELS 3 Zrotation Yrotation Xrotation
							End Site
							{
								OFFSET 4.083176 0.000000 0.000000 
							}
						}
					}
				}
			}
			JOINT rCollar
			{
				OFFSET -3.470700 6.669187 -0.816635 
				CHANNELS 3 Yrotation Zrotation Xrotation
				JOINT rShldr
				{
					OFFSET -3.198488 0.000000 0.000000 
					CHANNELS 3 Zrotation Yrotation Xrotation
					JOINT rForeArm
					{
						OFFSET -10.139888 0.000000 0.000000 
						CHANNELS 3 Yrotation Zrotation Xrotation
						JOINT rHand
						{
							OFFSET -8.370511 0.000000 0.000000 
							CHANNELS 3 Zrotation Yrotation Xrotation
							End Site
							{
								OFFSET -4.083176 0.000000 0.000000 
							}
						}
					}
				}
			}
		}
	}
	JOINT lThigh
	{
		OFFSET 5.308129 -1.633274 1.361059 
		CHANNELS 3 Xrotation Zrotation Yrotation
		JOINT lShin
		{
			OFFSET -2.041588 -20.007561 0.000000 
			CHANNELS 3 Xrotation Zrotation Yrotation
			JOINT lFoot
			{
				OFFSET 0.000000 -19.190928 -1.224953 
				CHANNELS 3 Xrotation Yrotation Zrotation
				End Site
				{
					OFFSET 0.000000 -2.449906 4.627600 
				}
			}
		}
	}
	JOINT rThigh
	{
		OFFSET -5.308129 -1.633274 1.361059 
		CHANNELS 3 Xrotation Zrotation Yrotation
		JOINT rShin
		{
			OFFSET 2.041588 -20.007561 0.000000 
			CHANNELS 3 Xrotation Zrotation Yrotation
			JOINT rFoot
			{
				OFFSET 0.000000 -19.190928 -1.224953 
				CHANNELS 3 Xrotation Yrotation Zrotation
				End Site
				{
					OFFSET 0.000000 -2.449906 4.627600 
				}
			}
		}
	}
}
MOTION
Frames: 19
Frame Time: 0.033333
143.439697 14.565872 1.607371 0.703125 -29.667969 91.069382 0.000000 0.000000 0.000000 29.804688 9.013672 -1.404720 -17.412109 -2.705078 -6.768040 -16.298828 -2.675781 -0.791471 31.162109 28.867189 24.995283 -0.419929 -119.453125 20.839844 -11.005858 3.750000 16.024752 -17.939453 -8.515625 0.809101 -21.611326 -28.681641 25.000000 51.181641 97.783203 37.509762 24.687498 0.234375 18.984375 -10.468750 0.888672 -1.689300 -18.202854 9.208923 9.273755 -3.563209 -2.009224 -3.753388 40.803242 0.387231 -21.013783 -27.946060 -16.829515 -32.302925 17.362888 1.360352 -6.794340 37.201874 6.587658 -1.705412 
144.628265 14.776835 1.659229 0.742188 -29.814455 91.381866 0.000000 0.000000 0.000000 28.535156 10.195313 -2.929688 -16.855469 -3.798828 -4.687500 -16.123047 -2.890625 -0.849609 31.738283 28.017578 24.995413 7.734397 -115.087898 8.643497 -16.728516 6.230469 21.074217 -11.259766 -6.875001 -0.087891 -22.900391 -30.000000 25.000000 81.201172 98.750000 68.535156 34.140629 2.548828 6.972222 -3.496094 2.880859 -1.455091 -18.582842 8.280413 12.393209 -3.991498 -1.980017 -3.125290 32.277592 0.127619 -15.649056 -28.101803 -16.057531 -31.344736 16.668917 1.542917 -4.476477 26.543417 6.079671 0.004529 
145.730423 14.517377 1.704271 0.859375 -30.722658 91.298828 0.000000 0.000000 0.000000 27.880859 11.103515 -4.060620 -17.109377 -4.716797 -2.929688 -16.171875 -3.017578 -0.889186 30.214844 26.191406 24.995691 24.140648 -108.955086 -19.013142 -25.986328 6.718750 29.277344 -4.990234 -5.224609 -0.751953 -23.427734 -30.000000 25.000000 -69.707031 78.203125 -77.988281 44.306641 1.210938 -6.533410 -4.765625 2.519531 -1.513672 -21.664526 8.033215 14.172724 -1.824202 -2.045580 -3.564361 19.892796 0.186745 -12.519363 -27.000525 -14.167671 -29.403103 10.349489 1.776848 -2.763969 15.983508 5.383298 2.936494 
147.012863 13.785521 1.732663 1.210938 -32.177734 90.771484 0.000000 0.000000 0.000000 28.310549 11.025392 -3.865321 -18.476563 -4.648438 -2.090635 -16.250000 -3.447265 -1.025391 28.408203 24.267576 25.000000 50.947281 -104.560547 -58.876640 -37.021488 3.076172 35.029297 0.585938 -3.710938 -1.181641 -24.130859 -30.000000 25.000000 -44.707031 74.248047 -54.307007 54.130859 1.201172 -8.134767 -6.406250 2.060547 -1.581680 -24.049076 7.556220 14.571858 -3.534593 -2.000327 -3.755432 9.252586 0.458073 -11.114590 -23.866804 -11.230274 -27.257854 -3.354498 1.862672 -1.564579 9.674118 4.967257 4.584136 
147.814575 12.564524 1.752596 1.601563 -34.189327 90.092178 0.000000 0.000000 0.000000 29.287109 10.527344 -2.908372 -20.419924 -4.072266 -1.884766 -16.875000 -4.023438 -1.191406 27.001953 22.099607 24.999998 -93.476563 -76.025391 80.791306 -48.056641 1.181641 30.839844 -12.304687 -7.138672 0.037851 -25.361328 -29.013674 25.000000 -28.632813 68.652344 -42.471375 61.660152 0.976563 -5.019532 -5.097657 2.421875 -1.523438 -28.591511 7.596646 13.999640 -3.582446 -2.037875 -4.483939 -0.178774 0.687750 -9.706656 -27.992460 -11.839765 -24.579321 -3.415371 1.892329 -0.191209 -1.050791 4.308980 6.905036 
148.778641 10.808490 1.773169 1.767578 -37.031250 89.437477 0.000000 0.000000 0.000000 29.355471 10.283202 -2.322475 -21.748049 -3.408203 -1.103516 -18.144531 -4.990234 -1.475459 25.585936 19.365234 24.628906 -62.900394 -71.220703 49.316406 -58.730469 0.742188 22.997875 -7.470702 -5.878906 -0.518578 -26.484375 -27.578127 25.000000 -19.472654 63.056641 -40.333092 65.800781 0.605469 1.113281 -3.271484 2.939453 -1.444812 -34.486675 8.122462 13.354621 -3.592382 -2.076969 -5.380653 -6.395259 0.885091 -9.752705 -33.814091 -12.183913 -22.851776 -3.451323 1.910755 0.998204 -5.733864 3.868577 9.009559 
149.261490 8.556531 1.784402 2.041015 -39.375004 88.808594 0.000000 0.000000 0.000000 30.458982 9.970703 -2.333984 -23.193359 -2.607422 -0.312944 -19.892578 -5.791016 -1.709970 24.873045 16.259766 24.998997 -42.890629 -65.722656 26.552732 -67.089844 -0.009766 10.673830 -10.693359 -6.728516 -0.156250 -27.783205 -26.191406 25.000000 -17.353514 58.115231 -48.478035 67.402344 0.136719 8.515625 1.855469 4.384766 -1.123047 -40.420944 8.892236 12.582129 -3.691293 -2.117696 -7.660428 -4.542525 0.995375 -11.185840 -39.341042 -12.555166 -21.835587 -3.509139 1.958068 2.507635 -7.658450 3.588160 11.219207 
149.588943 6.036225 1.772702 2.275391 -40.205078 88.392136 0.000000 0.000000 0.000000 34.980469 9.277344 -1.873426 -25.839844 -1.269531 0.077909 -22.763672 -6.650391 -1.964022 25.322266 13.740234 25.000000 -23.203125 -62.998043 2.842861 -73.535156 0.000000 10.615235 0.810547 -3.642578 -1.201792 -29.716797 -23.945313 24.999998 -19.257813 54.375000 -64.015495 67.802734 -0.322266 15.781304 -15.058595 -0.439453 -1.708982 -60.144154 13.280444 10.534932 27.204426 -3.423490 -13.504848 -4.041516 0.475942 -6.204265 -55.787552 -17.263191 -21.925573 21.880608 2.168145 9.039638 -3.010388 5.070957 -0.527588 
149.913864 3.716364 1.775430 2.734375 -41.542969 87.890625 0.000000 0.000000 0.000000 39.160156 8.193359 -1.894531 -27.021482 0.078125 0.253920 -27.119141 -6.298828 -1.855469 25.449219 13.515624 24.999998 -15.986327 -60.351559 -12.987002 -74.619141 -0.156250 8.066432 -3.896484 -4.931640 -0.850447 -29.355467 -22.500000 25.000000 -15.869142 53.564453 -76.308594 68.076164 -0.820313 23.251951 -15.869142 -0.673828 -1.699219 -70.647797 15.241441 9.641425 45.024246 -2.269187 -15.147448 -12.694458 0.684234 -5.003550 -68.434647 -20.769878 -17.882626 42.467556 0.957369 9.429734 -11.036502 4.835341 -1.448815 
150.147110 1.939438 1.813643 2.753906 -45.830078 87.412109 0.000000 0.000000 0.000000 38.769535 7.734375 -1.356108 -25.078125 0.527344 -0.322265 -31.474607 -4.824219 -1.416837 23.789063 14.384766 25.000000 -20.820313 -58.769535 -18.289600 -70.751953 -0.029297 10.214844 -7.304687 -5.849610 -0.528339 -25.507814 -22.343750 24.999998 -5.927735 54.208988 -82.656250 68.837891 -1.298828 30.537334 -18.564453 -1.445313 -1.640871 -80.236794 18.228695 12.269601 55.694328 -0.865768 -19.390921 -16.506199 0.583098 -2.638513 -78.453796 -22.302614 -16.679653 53.303810 0.303615 10.272941 -15.319580 4.781968 -2.143910 
150.787613 0.737900 1.844115 2.861328 -50.390629 87.531540 0.000000 0.000000 0.000000 38.535156 8.242188 -1.376953 -24.013672 0.087891 -0.937485 -32.724609 -2.861328 -0.850097 22.656250 14.560546 25.000000 -22.021482 -62.548832 -29.041872 -63.007813 0.449219 18.095625 -7.548829 -5.908203 -0.507813 -21.816404 -22.060547 25.000000 -3.974610 56.728516 -94.775391 69.804688 -2.109375 43.037468 -24.267578 -3.076172 -1.425781 -87.356079 19.361799 12.020064 61.714912 -0.531972 -20.853815 -19.641890 0.578048 -1.402115 -85.982101 -23.142187 -14.916617 59.973030 -0.233486 9.566176 -19.264790 4.598015 -1.867807 
152.162674 0.056885 1.872480 3.164063 -54.140369 88.107353 0.000000 0.000000 0.000000 40.566406 9.658202 -0.742187 -25.429688 -1.435547 -1.543213 -31.669924 -2.470703 -0.732427 22.265627 12.666016 24.997858 -3.525390 -71.220703 -59.550262 -52.128910 1.191406 30.429688 -3.808594 -4.902399 -0.860216 -20.371094 -19.697266 25.000000 -28.671877 56.630859 -131.738281 66.035156 -2.792969 54.551254 -7.705078 1.679688 -1.621094 -90.809914 18.642294 11.233392 63.704189 -0.368587 -22.222326 -24.777098 0.519956 1.205637 -90.940926 -24.303160 -13.662848 64.120674 -0.576149 9.187412 -22.116461 4.459266 -1.766896 
153.273361 -0.176982 1.891501 4.111328 -58.339844 88.478020 0.000000 0.000000 0.000000 42.128906 9.980468 -0.037370 -26.611330 -1.083984 -1.357422 -31.318357 -4.882813 -1.436378 21.591795 12.646484 25.000000 52.734375 -71.718750 -126.396492 -34.951172 3.876953 36.464184 -8.867188 -6.250000 -0.372157 -20.117188 -19.287109 25.000000 -48.662109 54.765625 -158.798828 51.494137 -3.271484 64.892578 -32.783203 -5.429688 -0.791016 -94.016403 17.653225 11.318489 64.778915 -0.261249 -22.480419 -26.638189 0.607777 0.789950 -95.101456 -26.226974 -13.450123 66.597878 -0.712457 10.047531 -24.104078 4.415898 -1.970196 
154.315002 -0.195102 1.936067 5.263671 -61.904301 87.861328 0.000000 0.000000 0.000000 43.808594 10.234375 0.646266 -27.333982 -1.416016 -0.908444 -31.572269 -4.921875 -1.455078 21.865234 12.402345 24.997900 -99.355469 -117.109375 28.320313 -14.384765 7.695313 27.274082 14.531250 0.244141 -1.611328 -18.535156 -21.357424 25.000000 -59.248047 46.630859 -164.016342 31.455076 -4.189453 41.650391 -41.582027 -7.724609 0.213533 -95.387894 18.260706 13.423191 64.751007 -0.376818 -24.589771 -28.272537 0.538634 1.830784 -97.472725 -27.104723 -13.456487 67.397217 -0.742070 10.918896 -25.973743 4.339126 -1.895721 
155.108459 -0.136154 2.048418 5.566406 -64.970695 87.451172 0.000000 0.000000 0.000000 45.341797 9.384766 1.651983 -27.685547 -0.917969 -1.631016 -32.304688 -2.910156 -0.849609 20.898438 13.603516 24.999996 -90.673828 -127.539055 6.027412 -6.933594 3.457031 18.408201 6.386718 -2.080078 -1.474609 -16.972656 -22.490232 25.000000 -64.716797 38.886719 -165.029297 15.986327 -1.982422 20.917971 -19.882813 -1.826172 -1.611639 -96.175201 19.459385 14.796396 64.234100 -0.582529 -27.252962 -29.943628 0.525496 2.621338 -98.166313 -27.163193 -13.939960 66.861237 -0.673230 11.786320 -28.469658 4.160930 -0.979953 
155.981720 0.037597 2.164647 5.498047 -68.330078 87.354202 0.000000 0.000000 0.000000 45.664066 8.349609 1.944778 -27.373047 0.234375 -1.464844 -32.802731 -2.617188 -0.771930 20.576170 15.449219 25.000000 -86.132813 -134.130859 -39.147636 -8.398438 -7.392579 10.546875 22.070313 2.392578 -1.435138 -17.353514 -22.431641 25.000000 110.654312 144.160156 4.488140 11.396484 0.439453 15.507813 3.593750 4.853516 -0.975735 -97.229561 20.279064 16.934687 63.547665 -0.661770 -27.416967 -30.889681 0.568961 2.656559 -98.901085 -27.486584 -15.751622 65.982132 -0.565654 13.017880 -29.794737 4.135971 -1.155461 
156.707886 0.429759 2.240322 6.796875 -71.562500 86.503906 0.000000 0.000000 0.000000 45.664063 7.910156 1.798219 -27.460938 0.537109 -1.201172 -31.767578 -3.837891 -1.132813 20.888672 14.687502 24.997522 97.705078 -39.941406 124.384766 -10.644532 -18.681641 -8.320313 -18.271484 -8.603516 0.849609 -18.320313 -21.972656 25.000000 108.134766 146.113281 2.783203 15.576173 5.546875 7.040072 3.300781 4.775391 -0.995279 -97.606667 20.155823 17.599495 61.352871 -1.187677 -29.161516 -30.925344 0.543137 3.104829 -99.485466 -28.217812 -17.411024 64.390640 -0.380941 14.599428 -30.187181 4.187396 -1.859097 
157.862167 0.919475 2.379216 8.339843 -73.134766 85.166016 0.000000 0.000000 0.000000 46.123043 7.158204 1.679688 -27.363283 0.341797 -2.558594 -30.878906 -3.759766 -1.104156 21.191406 14.082030 24.997625 102.246094 -37.685543 146.761612 -27.314453 -19.433594 -48.610031 -9.394530 -6.396484 -0.313588 -18.154299 -21.435547 25.000000 -71.621094 34.882813 -155.541290 28.339844 5.947266 -3.427734 3.066406 4.707032 -1.014822 -96.195343 20.181507 19.057558 59.037067 -1.734673 -28.231800 -30.568081 0.628207 1.785612 -98.833046 -28.199371 -18.832405 62.956421 -0.263186 14.922862 -29.461533 4.333061 -2.965853 
158.882294 1.535871 2.463591 8.232422 -73.485954 85.576782 0.000000 0.000000 0.000000 46.064457 7.431641 1.134076 -26.992191 0.126953 -2.978514 -30.517578 -3.652344 -1.074219 20.898438 14.296876 25.000000 -72.597656 -140.527344 -7.392578 -42.744141 -5.341796 -68.045975 -16.474609 -8.173828 0.594315 -17.607422 -21.298828 25.000000 -72.041016 38.466801 -141.250000 39.404297 0.595703 8.134665 6.601562 5.673828 -0.703125 -94.056320 19.087835 18.926516 56.093582 -1.941025 -26.745520 -29.688059 0.756580 0.402643 -96.998001 -27.780060 -19.110247 61.012604 -0.145848 13.805326 -28.465754 4.312902 -2.446248 
